<svg xmlns="http://www.w3.org/2000/svg" viewBox="0 0 277.63 96.64"><path d="M108.05 52.61V25.2h11.5V53c0 4.54 2.33 7.6 8 7.6 5.32 0 7.85-3.25 7.85-7.8V25.2h11.5v27.41c0 10.71-6.43 17.21-19.35 17.21s-19.5-6.37-19.5-17.21ZM152.28 35.72h10.2v4.55h.2a11.65 11.65 0 0 1 10.26-5.52c7.27 0 11.56 5.19 11.56 12.6V69h-10.59V49.49c0-3.51-1.75-5.91-5.19-5.91s-5.85 2.92-5.85 7V69h-10.59ZM189.94 22.54h10.59v8.57h-10.59Zm0 13.18h10.59V69h-10.59ZM208.86 60.21V44.3h-4.42v-8.58h4.42V25.2h10.32v10.52h6v8.58h-6v13.63c0 2.6 1.43 3.25 3.7 3.25.91 0 2-.06 2.34-.06v7.73a25.14 25.14 0 0 1-5.78.51c-6.17 0-10.58-2.01-10.58-9.15ZM231.78 71.7h3.64c3.12 0 4.35-1.23 4.35-3.5 0-1.43-.65-3.38-2-6.89L228 35.72h11.17l4.48 14.16c1 3.25 2.08 7.66 2.08 7.66h.13s.91-4.41 1.95-7.66l4.35-14.16h10.54l-11.5 33.71C248.54 77.22 245.36 80 238.67 80h-6.89Z" style="fill:#fff"/><path d="M85.56 67.62V22.54L46.52 0v17.29l15.3 8.83a.86.86 0 0 1 0 1.48L43.64 38.1a1.73 1.73 0 0 1-1.72 0L23.74 27.6a.86.86 0 0 1 0-1.48L39 17.29V0L0 22.54v45.08L15 59V41.31a.87.87 0 0 1 1.29-.74l18.18 10.5a1.69 1.69 0 0 1 .85 1.48v21a.86.86 0 0 1-1.27.75l-15.3-8.84-15 8.65 39 22.54 39-22.54-15-8.65-15.3 8.84a.87.87 0 0 1-1.28-.75v-21a1.69 1.69 0 0 1 .86-1.48l18.18-10.5a.86.86 0 0 1 1.28.74V59Z" style="fill:#ccc"/><path d="m42.78 96.64 39-22.54-15-8.65-15.3 8.84a.87.87 0 0 1-1.28-.75v-21a1.69 1.69 0 0 1 .86-1.48l18.18-10.5a.86.86 0 0 1 1.28.74V59l15 8.65V22.54l-42.74 24.7Z" style="fill:#a6a6a6"/><path d="M46.52 0v17.29l15.3 8.83a.86.86 0 0 1 0 1.48L43.64 38.1a1.73 1.73 0 0 1-1.72 0L23.74 27.6a.86.86 0 0 1 0-1.48L39 17.29V0L0 22.54l42.78 24.7 42.78-24.7Z" style="fill:#fff"/><path d="m34 74.29-15.3-8.84-15 8.65 39 22.54v-49.4L0 22.54v45.08L15 59V41.31a.87.87 0 0 1 1.29-.74l18.18 10.5a1.69 1.69 0 0 1 .85 1.48v21a.86.86 0 0 1-1.32.74Z" style="fill:#ccc"/><path d="M277.3 38.31a4.25 4.25 0 0 0-.92-1.36A4.07 4.07 0 0 0 275 36a4.27 4.27 0 0 0-3.29 0 4.22 4.22 0 0 0-1.36.91 4.39 4.39 0 0 0-.91 1.36 4.27 4.27 0 0 0 0 3.29 4.34 4.34 0 0 0 .91 1.35 4.25 4.25 0 0 0 1.36.92 4.2 4.2 0 0 0 4.64-.92 4.2 4.2 0 0 0 .92-1.35 4.27 4.27 0 0 0 0-3.29Zm-1.13 3.27a3.39 3.39 0 0 1-1.17 1.16 3.22 3.22 0 0 1-3.25 0 3.39 3.39 0 0 1-1.16-1.16 3.22 3.22 0 0 1 0-3.25 3.22 3.22 0 0 1 1.16-1.16 3.22 3.22 0 0 1 3.25 0 3.22 3.22 0 0 1 1.16 1.16 3.22 3.22 0 0 1 0 3.25Z" style="fill:#fff"/><path d="M274.87 39.93a1.23 1.23 0 0 0 .21-.73 1.26 1.26 0 0 0-1.2-1.25h-2v3.91h.86v-1.32h.85l.69 1.32h.94l-.8-1.52a1.39 1.39 0 0 0 .45-.41Zm-2.11-1.34h.81a.7.7 0 0 1 .36.12.53.53 0 0 1 .21.49.66.66 0 0 1-.21.53.61.61 0 0 1-.38.17h-.79Z" style="fill:#fff"/></svg>