<svg xmlns="http://www.w3.org/2000/svg" xml:space="preserve" x="0px" y="0px" viewBox="0 0 531.63 645.62"><style>.st1{fill:#fff}</style><g id="UE-2023-VERTICAL-BLACK"><path d="M265.82 434.56c120 0 217.28-97.28 217.28-217.28S385.82 0 265.82 0 48.54 97.28 48.54 217.28s97.28 217.28 217.28 217.28m55.57-96.48c53.13-25.09 69.79-71.44 73.54-89.5-19.43 19.9-40.92 40.06-55.38 26.1 0 0-.79-74.5-.79-105.05 0-41.08 38.96-71.7 38.96-71.7-21.43 3.81-47.15 11.45-74.46 38.25-2.46 2.44-4.8 5.01-7 7.7-11.7-8.96-26.87-6.27-26.87-6.27 8.19 4.5 16.38 17.61 16.38 28.47v106.69s-17.87 15.72-31.64 15.72c-3.1.02-6.17-.7-8.94-2.1s-5.16-3.45-6.98-5.96a21.2 21.2 0 0 1-2.69-4.63V143.97c-4.07 3.36-17.83 6.13-17.83-16.71 0-14.19 10.22-31.1 28.43-41.47a134.1 134.1 0 0 0-67.53 31.15 132.23 132.23 0 0 0-45.76 101.35s13.31-41.59 29.98-45.43c2.43-.64 4.97-.7 7.43-.18s4.76 1.6 6.72 3.17 3.53 3.57 4.59 5.85a16.1 16.1 0 0 1 1.47 7.29v97.67c0 9.9-6.38 12.06-12.28 11.96-4-.28-7.94-1.02-11.77-2.22a132.8 132.8 0 0 0 46.22 39.27 132.8 132.8 0 0 0 58.86 14.63l36-36.19z" style="fill-rule:evenodd;clip-rule:evenodd;fill:#fff"/><path d="M81.31 504.6v37c0 21.3-14.5 35.3-40.6 35.3S0 562.9 0 541.6v-37h20.4V540c0 12.2 6.8 20.1 20.3 20.1s20.2-7.9 20.2-20.1v-35.4zM177.66 504.6v70h-17.9l-45.2-46v46h-19.7v-70h21.6l41.5 42.8v-42.8zM251.6 574.6l-18.5-22.1h-20.6v22.1h-20.3v-70h49.1c17.9 0 31.8 7.9 31.8 23.9 0 11.7-7.4 19.1-18.4 22.3l20.6 23.8zm-11.8-36.9c7.3 0 12.6-2 12.6-8.8s-5.3-8.8-12.6-8.8h-27.4v17.6zM358.62 559v15.6h-74.71v-70h73.6v15.6h-53.5v11.5h44.1v14.9h-44.1V559zM429.53 561.2h-38.4l-6.6 13.4h-21.4l36.2-70h22.3l36.2 70h-21.7zm-7.1-14.5-12.1-24.8-12.2 24.8zM531.63 558.2v16.4h-67.5v-70h20.4v53.6zM154.96 633.81v10.29h-49.3v-46.2h48.57v10.29h-35.31v7.59h29.1v9.83h-29.1v8.18h36.04zM217.12 597.91v46.2h-11.81l-29.83-30.36v30.36h-13v-46.2h14.25l27.39 28.25v-28.25zM281.27 635.39c-4.95 6.14-14.06 10.23-26.4 10.23-18.94 0-30.69-8.97-30.69-24.62s11.75-24.62 30.69-24.62c11.42 0 19.67 4.03 24.48 8.51l-9.83 7.26c-3.96-3.56-8.12-5.15-14.32-5.15-11.22 0-17.36 4.95-17.36 13.99 0 9.11 6.33 14.06 17.55 14.06 5.67 0 10.16-1.12 13.4-4.09v-4.16h-15.31v-9.44h27.78v18.03zM289.3 644.1v-46.2h13.46v46.2zM366.97 597.91v46.2h-11.81l-29.83-30.36v30.36h-13v-46.2h14.25l27.39 28.25v-28.25zM425.97 633.81v10.29h-49.3v-46.2h48.57v10.29h-35.31v7.59h29.1v9.83h-29.1v8.18h36.04z" class="st1"/></g></svg>